<svg xmlns="http://www.w3.org/2000/svg" height="237" width="246"><path d="m144.4504 1.5787 31.005 31.097v29.732h69.382v52.072h-17.053v90.48l-31.45 31.084h-93.765l-31.367-31.084v-29.818h-38.374l-31.115-31.084v-111.39l31.115-31.094h111.62"/><path fill="#fff" d="m36.3874 166.5596h43.396v34.827l26.321 26.084h86.707l26.392-26.084v-95.493h17.065v-34.895h-52.341v121.62h-69.261v-26.06h26.211l26.008-26.051v-34.615h-34.887v25.863h-17.332v-60.758h-52.192v34.895h17.308v25.863h-34.683v-87.027h86.899v26.269h34.887v-34.754l-26.008-26.075h-104.49l-26.102 26.063v104.28l26.102 26.051"/><path fill="#cfb87c" d="m110.3604 162.2596h28.739l23.487-23.523v-28.553h-26.287v25.854h-25.939v-60.742h-43.597v26.311h17.314v34.431h-43.265v-95.598h95.488v26.264h26.287v-28.695l-23.487-23.554h-100.93l-23.587 23.554v100.73l23.575 23.523h45.921v37.323l23.799 23.602h83.166l23.875-23.614v-97.966h17.047v-26.311h-43.747v121.59h-77.856v-34.631"/></svg>